<svg width="104" height="40" viewBox="0 0 104 40" fill="none" xmlns="http://www.w3.org/2000/svg">
<g opacity="0.5">
<path d="M21.4834 9H0V30.4834H21.4834V9Z" fill="white"/>
<path d="M10.0265 21.1738L6.30273 14.2275H8.0214L10.1697 18.5958C10.1697 18.6674 10.2414 18.739 10.313 18.8107C10.3846 18.8823 10.3846 18.9539 10.4562 19.0971L10.5278 19.1687V19.2403C10.5994 19.3836 10.5994 19.4552 10.671 19.5984C10.7426 19.67 10.7426 19.8132 10.8142 19.8848C10.8859 19.67 11.0291 19.5268 11.1007 19.2403C11.1723 19.0255 11.3155 18.8107 11.4587 18.5958L13.6071 14.2275H15.1825L11.4587 21.2454V25.6853H10.0265V21.1738Z" fill="black"/>
<path d="M31.2949 14.573C32.369 14.573 33.3 14.8594 34.0161 15.4323L33.3 16.2917C32.6555 15.862 32.011 15.5756 31.2233 15.5756C30.0059 15.5756 29.0749 16.2201 28.5737 17.4374C28.2872 18.1536 28.144 19.0845 28.144 20.3019C28.144 21.2328 28.2872 22.0206 28.502 22.5935C29.0749 23.9541 30.0059 24.5986 31.4381 24.5986C32.2258 24.5986 32.9419 24.3837 33.5864 23.8825L34.3026 24.8134C33.3716 25.3863 32.369 25.6727 31.2949 25.6727C30.0059 25.6727 28.9317 25.1715 28.0724 24.0973C27.213 23.0947 26.855 21.7341 26.855 20.0871C26.855 18.44 27.2846 17.151 28.144 16.0768C28.9317 15.1459 30.0059 14.573 31.2949 14.573Z" fill="white"/>
<path d="M35.3768 21.6625C35.3768 20.3735 35.6633 19.3709 36.3078 18.6548C36.9523 17.9387 37.74 17.509 38.7426 17.509C39.8883 17.509 40.8193 17.9387 41.4638 18.8696C41.9651 19.5858 42.1799 20.5883 42.1799 21.8057C42.1799 23.2379 41.7502 24.3837 40.9625 25.0998C40.3896 25.6011 39.6735 25.8876 38.8142 25.8876C37.74 25.8876 36.9523 25.5295 36.3078 24.7418C35.6633 24.0257 35.3768 22.9515 35.3768 21.6625ZM40.3896 19.5858C40.0316 18.9413 39.5303 18.5832 38.7426 18.5832C37.9548 18.5832 37.4536 18.8696 37.0955 19.4425C36.8091 19.8722 36.7374 20.5883 36.7374 21.5193C36.7374 22.7367 36.8807 23.596 37.2387 24.0973C37.5968 24.5986 38.0981 24.885 38.8142 24.885C39.6735 24.885 40.2464 24.4553 40.5328 23.6676C40.6761 23.2379 40.7477 22.665 40.7477 21.9489C40.8193 20.8748 40.6761 20.087 40.3896 19.5858Z" fill="white"/>
<path d="M44.4713 19.729C44.4713 18.9413 44.3996 18.2968 44.1848 17.7955L45.4022 17.509C45.617 17.8671 45.6887 18.2968 45.6887 18.6548V18.7264C45.9751 18.44 46.2615 18.1535 46.6912 17.9387C47.1925 17.6523 47.6222 17.509 48.0518 17.509C48.6963 17.509 49.2692 17.7955 49.6273 18.2968C49.6989 18.44 49.8421 18.6548 49.9137 18.798C50.773 17.9387 51.5608 17.509 52.4201 17.509C52.993 17.509 53.4943 17.7239 53.8523 18.0819C54.2104 18.5116 54.4252 19.0129 54.4252 19.5858V25.5295H53.1362V19.6574C53.1362 18.8696 52.7782 18.5116 52.1337 18.5116C51.7756 18.5116 51.3459 18.6548 50.9879 18.9413C50.8447 19.0845 50.5582 19.2993 50.2002 19.5858L50.0569 19.729V25.5295H48.6963V19.9438C48.6963 19.4425 48.6247 19.0845 48.4815 18.9413C48.2667 18.7264 48.0518 18.6548 47.6938 18.6548C47.1209 18.6548 46.4764 19.0129 45.6887 19.729V25.6011H44.4713V19.729Z" fill="white"/>
<path d="M56.6432 14.2864L57.9322 14C58.0754 14.5729 58.147 15.2174 58.147 16.0051V17.7954C58.147 18.2251 58.147 18.5115 58.147 18.6547C58.8631 17.9386 59.6509 17.5806 60.4386 17.5806C61.3695 17.5806 62.1573 17.9386 62.6585 18.6547C63.2314 19.3708 63.5179 20.3734 63.5179 21.5908C63.5179 22.8798 63.2314 23.8824 62.6585 24.6701C62.0856 25.4578 61.2979 25.8159 60.367 25.8159C59.9373 25.8159 59.5793 25.7443 59.1496 25.5294C58.7199 25.3146 58.4335 25.0997 58.2186 24.8133C58.147 25.1714 58.0754 25.4578 58.0038 25.6726H56.7864C56.9296 25.3146 57.0012 24.6701 57.0012 23.6675V16.1483C56.9296 15.289 56.858 14.6445 56.6432 14.2864ZM58.7199 19.156C58.5051 19.2992 58.2902 19.5141 58.147 19.7289V23.8107C58.6483 24.4552 59.2928 24.7417 60.0805 24.7417C60.725 24.7417 61.2263 24.5269 61.5128 24.0256C61.8708 23.4527 62.0856 22.665 62.0856 21.5192C62.0856 20.5166 61.9424 19.8005 61.5844 19.3708C61.2979 18.9412 60.7966 18.7263 60.0805 18.7263C59.6509 18.6547 59.1496 18.798 58.7199 19.156Z" fill="white"/>
<path d="M65.3807 15.2892C65.3807 15.0027 65.4523 14.7879 65.6672 14.5731C65.882 14.3582 66.0968 14.2866 66.3833 14.2866C66.6697 14.2866 66.8846 14.3582 67.0994 14.5731C67.3142 14.7879 67.3858 15.0027 67.3858 15.2892C67.3858 15.5756 67.3142 15.7905 67.0994 16.0053C66.8846 16.2201 66.6697 16.2917 66.3833 16.2917C66.0968 16.2917 65.882 16.2201 65.6672 16.0053C65.4523 15.7905 65.3807 15.5756 65.3807 15.2892ZM65.6672 25.6012V17.724L66.9562 17.5091V25.6012H65.6672Z" fill="white"/>
<path d="M69.7499 19.729C69.7499 19.1561 69.7499 18.798 69.6783 18.6548C69.6783 18.44 69.5351 18.2251 69.3918 17.8671L70.6092 17.509C70.8241 17.9387 70.8957 18.2968 70.8957 18.7264C71.6834 17.9387 72.5427 17.509 73.4021 17.509C73.8317 17.509 74.1898 17.5806 74.5479 17.7955C74.9059 18.0103 75.1924 18.2968 75.3356 18.6548C75.4788 18.9413 75.5504 19.2277 75.5504 19.5858V25.6011H74.333V20.2303C74.333 19.5858 74.2614 19.1561 74.0466 18.9413C73.8317 18.7264 73.5453 18.5832 73.1872 18.5832C72.9008 18.5832 72.4711 18.7264 72.0415 18.9413C71.6118 19.1561 71.2537 19.4425 70.9673 19.729V25.6011H69.7499V19.729Z" fill="white"/>
<path d="M78.4147 19.4425L77.7702 18.5832C78.8443 17.8671 79.9185 17.509 81.0643 17.509C82.2101 17.509 82.9262 17.9387 83.2842 18.7264C83.4275 19.0129 83.4275 19.4425 83.4275 20.087V20.5167L83.3558 23.0947C83.3558 23.1663 83.3558 23.3095 83.3558 23.4528C83.3558 23.8824 83.3558 24.1689 83.4275 24.3837C83.4991 24.6702 83.7139 24.885 84.0004 25.0282L83.3558 25.8876C82.783 25.6727 82.4249 25.3147 82.2817 24.7418C81.5656 25.4579 80.7778 25.8159 79.9901 25.8159C79.2024 25.8159 78.5579 25.6011 78.0566 25.1714C77.6269 24.8134 77.4121 24.2405 77.4121 23.5244C77.4121 22.5934 77.7702 21.9489 78.4863 21.4477C79.2024 20.9464 80.2766 20.7315 81.5656 20.7315C81.7804 20.7315 81.9236 20.7315 82.1385 20.7315V20.1587C82.1385 19.5141 82.0668 19.0845 81.852 18.9413C81.5656 18.6548 81.2791 18.5116 80.7778 18.5116C80.3482 18.5116 79.8469 18.6548 79.274 18.8696C79.0592 19.0129 78.7727 19.2277 78.4147 19.4425ZM82.2101 23.6676L82.2817 21.5909C81.9236 21.5909 81.7088 21.5909 81.6372 21.5909C80.4914 21.5909 79.7753 21.8057 79.3456 22.2354C79.0592 22.5218 78.9159 22.9515 78.9159 23.5244C78.9159 24.4553 79.3456 24.9566 80.2766 24.9566C81.1359 24.885 81.7804 24.4553 82.2101 23.6676Z" fill="white"/>
<path d="M87.5104 17.7237H89.5155L89.1575 18.7262H87.5104V23.8106C87.5104 24.2403 87.582 24.5268 87.7253 24.7416C87.8685 24.8848 88.1549 25.028 88.513 25.028C88.7994 25.028 89.0859 24.9564 89.3007 24.8848L89.4439 25.6725C89.0143 25.8874 88.5846 25.959 88.0833 25.959C86.8659 25.959 86.293 25.3861 86.293 24.1687V18.7262H85.2189V17.7237H86.2214V17.5805C86.2214 17.4372 86.293 16.8644 86.3647 15.9334V15.7186L87.6537 15.4321C87.5104 16.2915 87.5104 17.0792 87.5104 17.7237Z" fill="white"/>
<path d="M90.8033 21.6625C90.8033 20.3735 91.0898 19.3709 91.7343 18.6548C92.3072 17.9387 93.1665 17.509 94.1691 17.509C95.3149 17.509 96.2458 17.9387 96.8903 18.8696C97.3916 19.5858 97.6064 20.5883 97.6064 21.8057C97.6064 23.2379 97.1768 24.3837 96.389 25.0998C95.8161 25.6011 95.1 25.8876 94.2407 25.8876C93.1665 25.8876 92.3788 25.5295 91.7343 24.7418C91.1614 24.0257 90.8033 22.9515 90.8033 21.6625ZM95.8877 19.5858C95.5297 18.9413 95.0284 18.5832 94.2407 18.5832C93.453 18.5832 92.9517 18.8696 92.5936 19.4425C92.3072 19.8722 92.2356 20.5883 92.2356 21.5193C92.2356 22.7367 92.3788 23.596 92.7368 24.0973C93.0949 24.5986 93.5962 24.885 94.3123 24.885C95.1716 24.885 95.7445 24.4553 96.031 23.6676C96.1742 23.2379 96.2458 22.665 96.2458 21.9489C96.2458 20.8748 96.1026 20.087 95.8877 19.5858Z" fill="white"/>
<path d="M99.9682 19.5858C99.9682 18.8696 99.8966 18.2968 99.6818 17.8671L100.899 17.509C101.114 17.9387 101.186 18.2968 101.186 18.7264V18.8696C101.83 18.0103 102.546 17.5806 103.406 17.5806C103.549 17.5806 103.692 17.5806 103.835 17.6523L103.334 19.0129C103.191 18.9413 103.047 18.9413 102.976 18.9413C102.689 18.9413 102.331 19.0129 102.045 19.2277C101.758 19.4425 101.472 19.6574 101.329 19.9438C101.257 20.1587 101.186 20.4451 101.186 20.8032V25.7443H99.9682V19.5858Z" fill="white"/>
</g>
</svg>
