<svg width="90" height="40" viewBox="0 0 90 40" fill="none" xmlns="http://www.w3.org/2000/svg">
<g opacity="0.5">
<path d="M23.771 28.9095C20.5616 28.9095 20.3066 26.4496 20.3066 25.7252C20.3066 24.865 20.5016 23.2653 22.5862 22.4956C24.6709 21.726 25.1208 21.6354 26.6056 21.1676V20.8054C26.6056 20.081 26.6056 19.9452 26.4406 19.4774C26.1856 18.6473 25.3758 18.089 24.251 18.089C23.1861 18.089 22.2713 18.6926 21.8514 19.583L21.2515 19.2208C21.6114 17.8928 22.9762 16.5647 25.3158 16.5647C26.9355 16.5647 28.0603 17.0326 28.7202 18.0588C29.2151 18.8888 29.2751 20.0056 29.2751 21.1374C29.2751 22.1636 29.2151 23.2955 29.2151 24.216C29.2151 24.8197 29.1551 25.4083 29.1551 25.7403C29.1551 26.5703 29.3201 27.2343 29.98 27.2343C30.28 27.2343 30.3399 27.1287 30.5799 26.9778L30.9398 27.4456C30.3399 28.2756 29.6201 28.9396 28.4353 28.9396C27.5204 28.9396 26.8605 28.4718 26.5906 27.7172C26.2156 28.2454 25.2408 28.9095 23.771 28.9095ZM26.6056 22.6465C25.0308 23.1144 24.4609 23.3709 24.011 23.6124C23.2911 23.9746 22.9912 24.6386 22.9912 25.4988C22.9912 26.1628 23.2461 27.2343 24.7759 27.2343C25.2708 27.2343 25.9907 27.1287 26.6506 26.6759V22.6315H26.6056V22.6465ZM0.104983 28.2756C0.104983 27.0834 0.104983 26.0723 0 24.8499H0.71988C0.71988 25.6195 0.914847 26.1779 1.27479 26.5401C1.76971 27.0985 2.95451 27.4607 4.01933 27.4607C6.25396 27.4607 7.31878 26.6005 7.31878 24.7442C7.31878 23.1596 6.35894 22.4956 5.03916 21.56L4.84419 21.394L3.41943 20.4281C1.43976 19.1001 0.41993 18.0739 0.41993 15.9762C0.41993 14.95 0.824862 11.5695 5.75904 11.5695C7.03383 11.5695 8.65356 11.7355 9.6284 11.8713C9.6284 12.0373 9.56841 12.7919 9.56841 13.4559C9.56841 14.2256 9.5684 14.4218 9.6284 15.3423H9.02849C9.02849 14.5123 8.77354 14.0143 8.4286 13.6521C7.96367 13.1843 6.91385 12.9277 5.78904 12.9277C3.14948 12.9277 2.84952 14.2558 2.84952 15.282C2.84952 16.6704 3.56941 17.1684 5.12915 18.1946L6.91385 19.3868C8.4286 20.413 9.85336 21.3789 9.85336 23.9444C9.85336 28.2454 5.83403 28.6982 4.15431 28.6982C2.60957 28.9095 1.31978 28.6831 0.104983 28.2756ZM32.0497 17.3344C32.6496 17.3948 33.5644 17.3344 34.4493 17.1684C35.2141 17.0024 35.4691 16.9118 36.024 16.6704L36.279 16.8364V17.7569C36.8789 17.2891 38.0637 16.6251 39.7434 16.6251C41.888 16.6251 43.2678 17.6513 43.6577 19.4472C43.7627 19.915 43.8227 20.9714 43.8227 21.6052V25.0913C43.8227 27.0381 43.9277 27.6116 44.2876 27.9587C44.4826 28.1247 44.8875 28.3209 45.4724 28.3209V28.8793C44.7076 28.8189 43.3278 28.7736 42.5329 28.7736C41.4681 28.7736 40.2533 28.834 39.5934 28.8793V28.3209C40.1933 28.2605 40.5532 28.0643 40.7782 27.9134C41.1381 27.5512 41.1831 26.8872 41.2431 25.3932C41.2431 24.9253 41.3031 24.0048 41.3031 23.3407C41.3031 22.4805 41.3031 21.5449 41.1981 20.6243C41.0332 19.1001 40.2383 18.3757 38.6936 18.3757C37.6287 18.3757 36.9688 18.6322 36.4589 18.8737V25.1215C36.4589 27.0683 36.5639 27.6418 36.9238 27.9889C37.1188 28.1549 37.5837 28.3511 38.0487 28.3511V28.9095C37.0888 28.8491 35.904 28.8038 35.1541 28.8038C33.5794 28.8038 33.0695 28.8642 32.1546 28.9095V28.3209C32.6496 28.3209 33.1745 28.1247 33.4294 27.8229C33.7894 27.4154 33.8344 26.3892 33.8344 24.3971V20.8507C33.8344 19.3566 33.7744 18.753 33.5794 18.4361C33.4144 18.1795 33.0245 17.9682 32.1996 17.9682V17.3042H32.0947V17.3344H32.0497ZM46.7622 28.2454C47.2571 28.2454 47.782 28.0794 48.037 27.7474C48.3969 27.34 48.4419 26.3137 48.4419 24.3217V18.3606H46.9272V17.6966C47.5871 17.44 48.142 17.1382 48.4419 16.8666C48.4419 15.7951 48.5019 14.4519 48.6369 13.6823C49.1018 11.2224 50.6766 10 53.3611 10C54.5459 10 55.6407 10.4075 56.3606 10.9658L56.4206 11.2224L55.2358 12.8523H54.9358C54.5309 11.8864 53.916 11.328 52.8512 11.328C52.4913 11.328 51.9963 11.4337 51.6664 11.7355C51.1715 12.2335 51.0665 13.0183 51.0665 14.5576V16.8515H53.7061V18.3455H51.0665V24.9555C51.0665 26.5401 51.1265 27.3098 51.3214 27.6116C51.6214 28.1096 52.7012 28.17 53.1961 28.17V28.7736C52.3413 28.7133 50.9615 28.668 49.9867 28.668C48.5019 28.668 47.5421 28.7284 46.7772 28.7736L46.7622 28.2454ZM60.3949 29C56.7955 29 54.6509 26.7514 54.6509 22.9635C54.6509 20.0056 56.2256 16.5647 60.6499 16.5647C64.2493 16.5647 66.3939 18.8133 66.3939 22.6013C66.3939 25.5592 64.8042 29 60.3949 29ZM60.5449 17.938C59.825 17.938 59.2701 18.1342 58.8652 18.4964C57.9053 19.3264 57.4404 20.745 57.4404 22.8427C57.4404 23.6728 57.6054 27.6569 60.4999 27.6569C61.2198 27.6569 61.7747 27.4607 62.1796 27.0985C63.1395 26.2685 63.6044 24.8499 63.6044 22.7522C63.5894 21.9373 63.4544 17.938 60.5449 17.938ZM67.6087 17.274C68.4336 17.3344 69.2885 17.2137 70.2033 17.0778C70.9232 16.9722 71.3881 16.8213 71.6281 16.6704L71.823 16.776V17.8022C72.3779 17.2438 73.3078 16.6704 74.5676 16.6704C75.4824 16.6704 76.0823 16.9269 76.6522 17.3948V17.7569L75.6324 19.6132H75.1375C74.8375 19.0548 74.2226 18.5417 73.1578 18.5417C72.6629 18.5417 72.243 18.6473 71.883 18.9039V25.0008C71.883 26.5854 71.943 27.2947 72.138 27.6116C72.4379 28.1096 73.4578 28.17 74.0127 28.1096V28.7736C73.1878 28.7133 71.778 28.668 70.8032 28.668C69.6784 28.668 68.5236 28.668 67.5937 28.7736V28.17C68.2536 28.1096 68.6136 27.9738 68.8685 27.672C69.2285 27.2645 69.2735 26.2836 69.2735 24.2462V20.9261C69.2735 19.4321 69.2735 18.8284 69.0185 18.5115C68.8235 18.255 68.4186 18.1041 67.6387 18.1041V17.3344L67.6087 17.274ZM84.256 10.7244C84.9758 10.7244 85.8757 10.5584 87.0605 10.3622C87.7204 10.2566 88.1253 10.1056 88.3353 10.0604L88.5302 10.166C88.4253 11.1318 88.4253 13.3503 88.4253 14.9198V24.6386C88.4253 26.0723 88.4253 26.9929 88.6202 27.2947C88.8152 27.5512 89.2201 27.7625 90 27.7625V28.3662C89.2351 28.3662 88.3803 28.4718 87.4654 28.6227C86.8655 28.7284 86.4006 28.8189 86.1456 28.9245L85.8457 28.8189V27.7927C85.2458 28.2605 84.121 28.9245 82.5462 28.9245C79.2918 28.9245 77.2071 26.6759 77.2071 23.1446C77.2071 21.9523 77.4021 20.8959 77.807 19.915C78.8269 17.7569 80.8665 16.5345 83.4461 16.5345C84.4059 16.5345 85.2308 16.6402 85.7257 16.7307V14.2105C85.7257 12.7164 85.7257 11.9619 85.4708 11.5997C85.3058 11.3431 85.0658 11.2375 84.196 11.1922V10.7093H84.256V10.7244ZM83.836 27.2494C84.6609 27.2494 85.2158 27.1438 85.7707 26.7816V18.8133C85.5757 18.6172 84.8559 17.9833 83.4311 17.9833C81.1515 17.9833 80.0267 19.5679 80.0267 22.8578C79.9817 24.2311 80.3866 27.2494 83.836 27.2494ZM19.1368 27.6116C18.7769 28.0794 17.862 29 15.9273 29C14.0827 29 13.0778 28.336 12.6279 26.8419C12.4329 26.2836 12.4329 25.1064 12.4329 24.4273C12.4329 22.5409 12.4329 21.0016 12.4929 19.2057V18.3757H10.9032V17.9079C11.5031 17.6513 11.968 17.4098 12.3879 17.0778C13.3028 16.3535 13.9027 15.4932 14.5776 14.2105H15.0725V16.8666H19.0918V18.3606H15.0725V24.6084C15.0725 26.4948 15.4324 27.521 17.1571 27.521C17.982 27.521 18.5369 27.2645 18.8369 27.0532L19.1368 27.6116Z" fill="white"/>
</g>
</svg>
