<svg width="117" height="40" viewBox="0 0 117 40" fill="none" xmlns="http://www.w3.org/2000/svg">
<g opacity="0.5">
<path d="M13.4467 11C12.0444 11.0059 10.6493 11.7437 9.95301 13.2132L9.63135 13.8914V19.4959V25.1003L9.95301 25.7786C10.4522 26.8321 11.2249 27.4971 12.383 27.8643C13.213 28.1274 14.536 27.9888 15.3799 27.5522C15.9273 27.2691 16.702 26.426 17.001 25.7881L17.2749 25.2022V19.4959V13.7895L16.9755 13.1845C16.2568 11.721 14.8491 10.9942 13.4467 11ZM13.5104 13.7768C13.5611 13.7771 13.6119 13.7821 13.6601 13.7927C13.8218 13.8282 14.0915 14.0157 14.262 14.2099L14.5741 14.5633V19.4704V24.3775L14.3448 24.7118C14.2187 24.8966 13.9819 25.0943 13.8194 25.1512C13.6568 25.2081 13.4734 25.254 13.4117 25.2531C13.1661 25.2499 12.7849 24.9782 12.5645 24.6513L12.3321 24.3074V19.5086C12.3324 14.928 12.3396 14.6931 12.5295 14.3818C12.7541 14.0136 13.1554 13.7744 13.5104 13.7768Z" fill="white"/>
<path d="M45.5775 27.811C44.3961 27.3729 43.6201 26.6182 43.1729 25.4725C43.0155 25.0694 42.9997 24.3885 43.0025 18.1358L43.0055 11.2435L44.382 11.2151L45.7585 11.1868L45.76 17.7876C45.7612 22.8886 45.7907 24.4463 45.8898 24.6432C45.9604 24.7833 46.1803 24.9853 46.3785 25.0922C46.8239 25.3322 47.1971 25.2584 47.606 24.8496L47.8987 24.557V17.8719V11.1868L49.2762 11.2151L50.6537 11.2435L50.6534 18.1396C50.6531 24.8786 50.6482 25.0488 50.4407 25.6034C50.1409 26.4046 49.376 27.2089 48.5259 27.6169C47.6396 28.0423 46.4181 28.1227 45.5775 27.811H45.5775Z" fill="white"/>
<path d="M-0.000244141 19.4974V11.1926H3.41385H6.82795V12.6192V14.0458H4.84064H2.85333V15.9871V17.9285L4.10177 17.9111L5.35021 17.8938L5.37856 19.2815L5.40692 20.6692H4.13012H2.85333V24.2357V27.8022H1.42654H-0.000244141V19.4974Z" fill="white"/>
<path d="M21.0957 19.4974V11.1926H23.2145C25.5216 11.1926 26.1531 11.2882 26.9561 11.7587C27.5619 12.1136 28.195 12.8273 28.5171 13.5181C28.7776 14.0771 28.788 14.1702 28.8212 16.257C28.8488 17.9937 28.8234 18.5427 28.6917 19.0567C28.5015 19.7989 28.1549 20.4315 27.6761 20.9102L27.3376 21.2487L28.2309 24.3075C28.7222 25.9898 29.1553 27.4644 29.1933 27.5842C29.2618 27.8 29.2479 27.8022 27.7918 27.8022H26.3211L25.8931 26.1463C25.4666 24.4962 24.3775 20.3622 24.2851 20.0425C24.2501 19.9213 24.3213 19.8557 24.5396 19.8077C24.9439 19.719 25.6743 19.0816 25.8479 18.6662C25.9487 18.4251 25.9875 17.8186 25.9875 16.4868V14.6415L25.6896 14.3437C25.4128 14.0669 25.3371 14.0458 24.6196 14.0458H23.8474V20.924V27.8022H22.4715H21.0957V19.4974Z" fill="white"/>
<path d="M34.4459 27.7257C34.4453 27.6837 34.4339 24.6 34.4205 20.873L34.396 14.0967L33.1476 14.0681L31.8992 14.0395V12.6161V11.1926H35.7719H39.6446V12.6192V14.0458H38.4216H37.1987V20.924V27.8022H35.8228C35.0661 27.8022 34.4465 27.7678 34.4459 27.7257Z" fill="white"/>
<path d="M54.3191 19.4973V11.1925H55.7248H57.1306L57.2391 11.5746C57.2988 11.7848 57.763 13.2636 58.2705 14.8609C58.7781 16.4581 59.3385 18.235 59.5158 18.8095C59.6932 19.3839 59.8815 19.8539 59.9343 19.8539C59.9931 19.8539 60.0279 18.1814 60.0239 15.5487L60.0174 11.2435L61.3976 11.2151L62.7779 11.1868V19.4944V27.802H61.2194H59.6609L59.3691 26.8595C59.2086 26.3411 58.9259 25.442 58.7409 24.8615C58.5558 24.281 58.1424 22.9627 57.8222 21.9319C57.5019 20.9011 57.2018 20.0577 57.1553 20.0577C57.1088 20.0577 57.0708 21.8002 57.0708 23.9299V27.802H55.6949H54.3191V19.4973H54.3191Z" fill="white"/>
<path d="M66.4468 19.4974V11.1926H69.8609H73.275V12.6192V14.0458H71.2345H69.1939L69.2217 15.9564L69.2494 17.867H70.5489H71.8484L71.8483 19.2681L71.8482 20.6692H70.5233H69.1984V22.8091V24.949H71.2367H73.275V26.3756V27.8022H69.8609H66.4468V19.4974H66.4468Z" fill="white"/>
<path d="M88.2336 17.2218C89.1372 17.2218 89.9435 17.4145 90.6525 17.8C91.3614 18.1855 91.9175 18.7483 92.3206 19.4884C92.7377 20.2286 92.9462 21.146 92.9462 22.2408C92.9462 24.0295 92.4458 25.4404 91.4449 26.4735C90.444 27.4912 88.9635 28 87.0034 28C86.2249 28 85.4881 27.9229 84.793 27.7687C84.1119 27.6145 83.5141 27.3909 82.9998 27.098V24.0912C83.5141 24.3841 84.1327 24.6385 84.8556 24.8544C85.5785 25.0549 86.2596 25.1551 86.8991 25.1551C87.8305 25.1551 88.5395 24.9469 89.026 24.5306C89.5265 24.0989 89.7767 23.4358 89.7767 22.5415C89.7767 20.8762 88.7827 20.0435 86.7948 20.0435C86.4056 20.0435 86.0025 20.0898 85.5854 20.1823C85.1684 20.2594 84.8208 20.3365 84.5428 20.4136L83.2917 19.6735L83.8547 11.2544H91.9245V14.215H86.6072L86.3361 17.4531C86.5724 17.4068 86.8226 17.3605 87.0868 17.3143C87.3648 17.2526 87.7471 17.2218 88.2336 17.2218Z" fill="white"/>
<path d="M105.067 19.5116C105.067 21.2848 104.893 22.8036 104.546 24.068C104.212 25.3324 103.663 26.3039 102.898 26.9823C102.148 27.6608 101.133 28 99.8538 28C98.0605 28 96.7468 27.2522 95.9127 25.7565C95.0787 24.2454 94.6616 22.1637 94.6616 19.5116C94.6616 17.7229 94.8284 16.1964 95.1621 14.932C95.4957 13.6676 96.0448 12.6961 96.8094 12.0177C97.574 11.3392 98.5888 11 99.8538 11C101.633 11 102.947 11.7478 103.795 13.2435C104.643 14.7392 105.067 16.8286 105.067 19.5116ZM97.7894 19.5116C97.7894 21.3927 97.9354 22.8113 98.2273 23.7673C98.5193 24.7079 99.0614 25.1782 99.8538 25.1782C100.632 25.1782 101.174 24.7079 101.48 23.7673C101.786 22.8268 101.939 21.4082 101.939 19.5116C101.939 17.6304 101.786 16.2118 101.48 15.2558C101.174 14.2998 100.632 13.8218 99.8538 13.8218C99.0614 13.8218 98.5193 14.2998 98.2273 15.2558C97.9354 16.2118 97.7894 17.6304 97.7894 19.5116Z" fill="white"/>
<path d="M117 19.5116C117 21.2848 116.826 22.8036 116.478 24.068C116.145 25.3324 115.596 26.3039 114.831 26.9823C114.08 27.6608 113.066 28 111.787 28C109.993 28 108.68 27.2522 107.846 25.7565C107.012 24.2454 106.595 22.1637 106.595 19.5116C106.595 17.7229 106.761 16.1964 107.095 14.932C107.429 13.6676 107.978 12.6961 108.742 12.0177C109.507 11.3392 110.522 11 111.787 11C113.566 11 114.88 11.7478 115.728 13.2435C116.576 14.7392 117 16.8286 117 19.5116ZM109.722 19.5116C109.722 21.3927 109.868 22.8113 110.16 23.7673C110.452 24.7079 110.994 25.1782 111.787 25.1782C112.565 25.1782 113.107 24.7079 113.413 23.7673C113.719 22.8268 113.872 21.4082 113.872 19.5116C113.872 17.6304 113.719 16.2118 113.413 15.2558C113.107 14.2998 112.565 13.8218 111.787 13.8218C110.994 13.8218 110.452 14.2998 110.16 15.2558C109.868 16.2118 109.722 17.6304 109.722 19.5116Z" fill="white"/>
</g>
</svg>
