<svg width="168" height="40" viewBox="0 0 168 40" fill="none" xmlns="http://www.w3.org/2000/svg">
<g opacity="0.5">
<path d="M4.62002 19.1291C4.01291 19.1291 3.8392 19.2151 3.8392 19.6924V23.5754C3.8392 23.7702 3.90412 24.9792 4.09889 25.202C4.33752 25.4617 5.03061 25.6126 5.72546 25.6126C7.37309 25.6126 8.58731 24.4861 8.58731 22.5998C8.58731 20.6469 6.98355 19.1291 4.62002 19.1291ZM5.33417 13.079C3.90412 13.079 3.8392 13.2738 3.8392 13.7072V18.4132C3.8392 18.7641 4.11994 18.7168 4.64108 18.7168C5.38765 18.7123 6.13373 18.7557 6.87476 18.8466C7.50293 18.3711 8.21883 17.9588 8.21883 16.2444C8.21883 15.1618 7.30816 13.0861 5.33417 13.0861V13.079ZM5.61667 26.0109C4.706 26.0109 3.79533 25.7933 2.8408 25.7933C1.93013 25.7933 1.45286 25.8811 0.759769 25.8811C0.542191 25.8811 0.391289 25.8582 0.391289 25.6424C0.391289 25.4266 0.521133 25.381 0.998401 25.381C1.97399 25.381 2.01786 25.3389 2.01786 25.0125V15.0302C2.01786 13.3177 1.66693 13.1229 1.06332 13.1229C0.0877327 13.1229 0 13.1001 0 12.8404C0 12.6895 0.0649227 12.6649 0.433402 12.6649C1.10719 12.6649 1.77923 12.6878 2.539 12.6878C2.99521 12.6878 4.03572 12.5562 5.9869 12.5562C8.80664 12.5562 10.0226 14.009 10.0226 15.5496C10.0226 17.0902 9.08915 17.8482 8.39605 18.3255C7.98371 18.608 7.50644 18.8519 7.50644 18.9098C7.50644 18.9677 7.91879 19.0624 8.35219 19.28C9.37165 19.8064 10.6508 20.5364 10.6508 22.4244C10.6508 24.8528 8.63469 26.0021 5.62018 26.0021" fill="white"/>
<path d="M14.6568 18.3553C13.2232 18.3553 12.7705 20.5048 12.7705 20.7697C12.7705 20.8645 12.7705 20.882 12.9969 20.882C13.9777 20.882 14.9954 20.6364 16.4097 20.41C16.6185 20.3732 16.6361 20.3363 16.6361 20.2223C16.6361 19.7502 15.5236 18.3553 14.6568 18.3553ZM17.5608 20.6188C16.0712 20.9561 14.5576 21.1767 13.0337 21.2786C12.7319 21.2979 12.6828 21.3926 12.6828 21.826C12.6828 24.4282 14.7007 25.1265 16.1342 25.1265C17.38 25.1265 18.0643 24.6738 18.1714 24.6738C18.2784 24.6738 18.3223 24.7861 18.3223 24.8247C18.3223 24.9195 16.7185 26.1074 15.192 26.1074C13.6654 26.1074 11.344 25.3529 11.344 22.2033C11.344 19.5432 13.1355 17.9587 14.8533 17.9587C15.8342 17.9587 17.0414 18.5816 17.7204 19.373C18.0415 19.7502 18.3433 20.203 18.3433 20.3539C18.3433 20.4293 18.0784 20.5048 17.5695 20.6188" fill="white"/>
<path d="M24.4634 20.1099C24.2002 20.1099 23.9739 19.3361 23.0299 19.3361C21.9367 19.3361 21.5209 19.7888 21.5209 20.5802V24.4685C21.5209 25.3915 21.5788 25.3915 22.9737 25.3915C23.465 25.3915 23.4826 25.4494 23.4826 25.6178C23.4826 25.8266 23.465 25.8073 22.9737 25.8073C22.7105 25.8073 21.4454 25.7126 20.8418 25.7126C20.2014 25.7126 19.5609 25.8073 19.296 25.8073C18.8626 25.8073 18.824 25.8073 18.824 25.6178C18.824 25.4283 18.8433 25.3915 19.296 25.3915C20.0698 25.3915 20.1259 25.3739 20.1259 25.109V19.9397C20.1259 18.6571 20.1628 18.6202 19.1082 18.6202C18.7678 18.6202 18.7678 18.6378 18.7678 18.4307C18.7678 18.2237 18.7485 18.1482 19.0696 18.1482C19.7101 18.1482 20.0698 18.1851 20.447 18.1851C20.7488 18.1851 21.1068 18.0903 21.4086 18.0903C21.484 18.0903 21.5595 18.1482 21.5595 18.2991C21.5595 18.3939 21.5209 18.808 21.5209 18.8641C21.5209 19.0396 21.5402 19.1659 21.6156 19.1659C21.8981 19.1659 22.786 18.1851 23.6721 18.1851C24.0107 18.1851 24.8793 18.6009 24.8793 19.0905C24.8793 19.28 24.5775 20.1099 24.4634 20.1099Z" fill="white"/>
<path d="M33.3858 25.8811C33.1594 25.8811 32.9138 25.8618 32.7436 25.8618C32.5172 25.8618 31.9522 25.8811 31.6908 25.8811C31.3504 25.8811 31.1802 25.4091 30.3888 24.5037C29.5975 23.5983 28.8096 22.4104 28.6903 22.4104C28.6149 22.4104 28.3517 22.5999 28.0306 22.8069C27.7095 23.014 27.4638 23.128 27.4638 23.2965V24.4844C27.4638 25.3722 27.4269 25.3722 28.5956 25.3722C29.0307 25.3722 29.1044 25.4652 29.1044 25.6161C29.1044 25.8056 29.0114 25.8056 28.5956 25.8056C28.3131 25.8056 27.4463 25.767 26.8409 25.767C26.1987 25.767 25.5003 25.8056 25.2371 25.8056C24.8037 25.8056 24.6897 25.7863 24.6897 25.6161C24.6897 25.4459 24.7844 25.3722 25.2371 25.3722C25.8776 25.3722 26.0478 25.3722 26.0478 25.088C26.0478 24.5423 26.1039 18.9589 26.1039 14.9794C26.1039 13.6406 25.953 13.4704 25.4442 13.4704C24.6721 13.4704 24.5967 13.4142 24.5967 13.2809C24.5967 13.0931 24.6335 13.0177 24.8406 13.0177C26.1987 13.0177 27.3111 12.6018 27.4726 12.6018C27.5673 12.6018 27.6042 12.6597 27.6042 12.7773C27.6042 13.0229 27.5673 13.8143 27.5673 14.4179C27.5673 17.285 27.4533 19.3976 27.4533 22.4718C27.4533 22.5472 27.4726 22.6051 27.5287 22.6051C28.0007 22.6051 29.9624 20.8698 30.566 20.303C31.3012 19.6011 31.4714 19.2853 31.4714 18.8888C31.4714 18.587 31.4153 18.5484 30.5853 18.5484C30.3028 18.5484 30.2081 18.5115 30.2081 18.3413C30.2081 18.1711 30.3028 18.1518 30.5467 18.1518C30.7362 18.1518 31.0942 18.2097 31.3205 18.2097C31.5469 18.2097 32.6593 18.1518 32.8857 18.1518C33.0366 18.1518 33.1121 18.1711 33.1121 18.229C33.1121 18.4045 32.4716 19.2099 31.8838 19.7749C30.9398 20.6996 29.7782 21.5295 29.7782 21.6611C29.7782 21.8366 30.1168 22.1875 31.4381 23.7667C32.0786 24.5405 32.6822 25.4635 33.3244 25.4635C33.7753 25.4635 33.928 25.5582 33.928 25.7091C33.928 25.86 33.7946 25.8846 33.3805 25.8846" fill="white"/>
<path d="M36.6583 18.3553C35.2248 18.3553 34.7721 20.5048 34.7721 20.7697C34.7721 20.8645 34.7721 20.882 34.9984 20.882C35.9793 20.882 36.997 20.6364 38.4112 20.41C38.62 20.3732 38.6376 20.3363 38.6376 20.2223C38.6376 19.7502 37.5251 18.3553 36.6583 18.3553ZM39.5623 20.6188C38.0727 20.9561 36.5591 21.1767 35.0353 21.2786C34.7335 21.2979 34.6843 21.3926 34.6843 21.826C34.6843 24.4282 36.7022 25.1265 38.1357 25.1265C39.3798 25.1265 40.0659 24.6738 40.1729 24.6738C40.2799 24.6738 40.3238 24.7861 40.3238 24.8247C40.3238 24.9195 38.72 26.1074 37.1935 26.1074C35.6669 26.1074 33.3245 25.3459 33.3245 22.2033C33.3245 19.5432 35.116 17.9587 36.8338 17.9587C37.8146 17.9587 39.0218 18.5816 39.7009 19.373C40.022 19.7502 40.3238 20.203 40.3238 20.3539C40.3238 20.4293 40.0589 20.5048 39.55 20.6188" fill="white"/>
<path d="M43.7066 25.8056C43.4241 25.8056 43.0047 25.767 42.6696 25.767C42.0274 25.767 41.029 25.8056 40.764 25.8056C40.3306 25.8056 40.292 25.767 40.292 25.6179C40.292 25.4687 40.3113 25.3722 40.764 25.3722C41.5378 25.3722 41.8572 25.3897 41.8572 25.0511V14.6582C41.8572 13.4703 41.7449 13.4703 40.8956 13.4703C40.5569 13.4703 40.3692 13.4317 40.3692 13.2247C40.3692 13.0176 40.5201 13.0176 40.8412 12.9983C41.6244 12.9505 42.3993 12.8115 43.1503 12.5842C43.2433 12.5842 43.3381 12.6772 43.3381 12.8843C43.3381 13.0913 43.2433 13.7914 43.2433 14.3564C43.2433 21.5505 43.1503 23.0332 43.1503 23.5789C43.1503 25.1458 43.2819 25.3529 43.6206 25.3529C44.5646 25.3529 44.526 25.4652 44.526 25.6179C44.526 25.8056 44.3944 25.8056 43.7153 25.8056" fill="white"/>
<path d="M47.5372 18.3553C46.1037 18.3553 45.651 20.5048 45.651 20.7697C45.651 20.8645 45.651 20.882 45.8773 20.882C46.8582 20.882 47.8759 20.6364 49.2901 20.41C49.4989 20.3732 49.5182 20.3363 49.5182 20.2223C49.5182 19.7502 48.404 18.3553 47.5372 18.3553ZM50.4412 20.6188C48.9516 20.9561 47.438 21.1767 45.9142 21.2786C45.6124 21.2979 45.5632 21.3926 45.5632 21.826C45.5632 24.4282 47.5811 25.1265 49.0147 25.1265C50.2605 25.1265 50.9448 24.6738 51.0518 24.6738C51.1588 24.6738 51.2027 24.7861 51.2027 24.8247C51.2027 24.9195 49.599 26.1074 48.0724 26.1074C46.5458 26.1074 44.2034 25.3459 44.2034 22.2033C44.2034 19.5432 45.9949 17.9587 47.7127 17.9587C48.6935 17.9587 49.9008 18.5816 50.5798 19.373C50.9009 19.7502 51.2027 20.203 51.2027 20.3539C51.2027 20.4293 50.9378 20.5048 50.4289 20.6188" fill="white"/>
<path d="M57.6479 18.0238C57.232 18.0238 56.4021 20.2873 54.9124 23.909C53.7245 26.7954 52.8752 28.3237 52.2804 29.5678C52.0733 29.9836 51.847 30.0012 51.4311 30.0591C50.8661 30.1345 50.7293 30.2837 50.3187 30.2837C49.9976 30.2837 49.8098 30.1907 49.8098 30.0959C49.8098 30.0012 50.6959 29.8696 51.3381 29.0589C52.0172 28.2096 53.6385 25.9847 53.6385 25.418C53.6385 25.2109 52.1295 21.7209 51.0925 19.2767C50.6205 18.1449 50.4889 18.0484 50.1502 18.0484C49.7712 18.0484 49.7537 18.0291 49.7537 17.8607C49.7537 17.6922 49.8098 17.5957 50.1502 17.5957C50.6766 17.5957 50.81 17.6343 51.2627 17.6343C51.7891 17.6343 52.4506 17.5764 53.0542 17.5764C53.449 17.5764 53.5244 17.6518 53.5244 17.8607C53.5244 18.0361 53.449 18.0484 53.0542 18.0484C52.6015 18.0484 52.4874 18.1625 52.4874 18.5959C52.4874 19.1433 52.9787 19.8031 54.1105 22.707C54.2614 23.1036 54.4877 23.4247 54.5632 23.4247C54.6948 23.4247 54.8088 23.1597 55.1089 22.2736C55.5616 20.9155 56.2406 18.9538 56.2406 18.6906C56.2406 18.1239 56.2406 18.0116 55.6002 18.0116C55.0159 18.0116 54.9404 18.0116 54.9404 17.8221C54.9404 17.5764 54.9966 17.5764 55.3352 17.5764C55.8458 17.5764 56.1845 17.615 56.6951 17.615C56.9776 17.615 57.4865 17.5396 57.7479 17.5396C58.0497 17.5396 58.1445 17.5589 58.1445 17.7659C58.1445 17.9414 57.8813 18.0291 57.6549 18.0291" fill="white"/>
<path d="M132.768 18.6064V19.7083H126.616V24.6863H133.475V25.7689H125.43V12.9915H133.198V14.046L126.571 14.0407L126.579 18.6064H132.768Z" fill="white"/>
<path d="M78.9598 12.9914H80.1162V18.6625L86.4435 12.9563L88.1069 12.9668L81.6252 18.8379L88.4684 25.7881L86.7049 25.7759L80.153 19.2152V25.7916H78.9458L78.9598 12.9914Z" fill="white"/>
<path d="M149.895 15.3848C149.599 15.1426 149.343 14.9128 149.074 14.6829C147.586 13.4546 145.125 13.4108 143.338 14.5601C140.147 16.6165 140.087 22.0104 143.245 24.1195C145.335 25.5127 148.378 25.36 150.009 23.186C150.083 23.0983 150.136 23.0298 150.136 23.0298L151.103 23.758C150.572 24.582 149.803 25.2242 148.897 25.5986C145.139 27.1305 139.985 25.2267 139.738 19.7468C139.664 18.101 140.004 16.5604 140.998 15.2181C142.363 13.3739 144.256 12.6212 146.505 12.651C148.039 12.6721 149.383 13.1441 150.455 14.2793C150.525 14.3548 150.697 14.5548 150.76 14.6303L149.895 15.3848Z" fill="white"/>
<path d="M63.6277 24.1737L64.7542 23.4245C64.884 23.5912 64.9928 23.7456 65.1139 23.8895C66.1351 25.1177 68.1775 25.3844 69.5198 24.5141C70.7639 23.707 71.192 21.4505 69.2952 20.5679C68.6478 20.2661 67.9494 20.0766 67.2791 19.8222C66.7396 19.6412 66.2121 19.4262 65.6999 19.1782C63.568 18.0412 63.3382 14.9933 65.2595 13.5177C66.858 12.2894 69.6006 12.3824 71.099 13.7212C71.2745 13.8739 71.4149 14.0563 71.5991 14.2476L70.5621 14.9968C69.5848 13.7335 68.3179 13.4966 66.8773 13.9177C65.8245 14.2248 65.263 14.9565 65.1735 16.0233C65.1219 16.4885 65.2244 16.9578 65.4653 17.3591C65.7062 17.7604 66.0722 18.0716 66.5071 18.2447C67.2774 18.5956 68.1003 18.8238 68.9004 19.1063C69.0935 19.1747 69.29 19.2326 69.4812 19.308C71.2833 20.0222 71.9939 21.2382 71.729 23.1385C71.5166 24.672 70.1059 25.9336 68.4319 26.067C67.1668 26.1688 65.928 26.067 64.8437 25.3318C64.3833 25.0081 63.9735 24.6178 63.6277 24.1737Z" fill="white"/>
<path d="M98.824 25.7687H97.6168L97.6379 20.3995L92.9319 12.9667L94.3567 12.9509L98.2239 19.0238L102.182 12.9509L103.528 12.965L98.8363 20.4328L98.824 25.7687Z" fill="white"/>
<path d="M158.483 12.9178H159.641V18.5888L165.977 12.8879H167.639L161.157 18.7608L168 25.7093L166.237 25.6987L159.685 19.138V25.7145H158.478L158.483 12.9178Z" fill="white"/>
<path d="M110.445 12C109.883 12.0007 109.323 12.0631 108.775 12.186C108.875 12.186 108.977 12.186 109.078 12.186C113.148 12.186 116.448 15.4076 116.448 19.3801C116.448 23.3527 113.148 26.5742 109.078 26.5742C108.977 26.5742 108.875 26.5742 108.775 26.5742C109.323 26.6935 109.883 26.7523 110.444 26.7497C114.609 26.7497 117.989 23.4509 117.989 19.3801C117.989 15.3093 114.611 12 110.445 12Z" fill="white"/>
</g>
</svg>
