<svg width="71" height="40" viewBox="0 0 71 40" fill="none" xmlns="http://www.w3.org/2000/svg">
<g opacity="0.5">
<path fill-rule="evenodd" clip-rule="evenodd" d="M42.9403 15.9142C41.825 15.9142 40.9299 16.2092 40.0005 16.6516C40.0074 14.0839 40.0418 11.8447 40.1038 11L34.6854 12.019V12.495L35.2155 12.5621C35.9729 12.6627 36.262 13.0917 36.3515 14.0773C36.5236 15.9611 36.4961 26.0577 36.3515 27.6734C37.8111 27.9952 39.3877 28.2366 40.9712 28.2366C45.2673 28.2366 47.856 25.6488 47.856 21.5525C47.856 18.274 45.7562 15.9142 42.9403 15.9142ZM41.0539 27.4052C40.744 27.4052 40.3516 27.3583 40.1313 27.3181C40.0487 26.185 39.9936 21.5122 40.0005 17.4293C40.4961 17.2684 40.8335 17.2282 41.2673 17.2282C43.0436 17.2282 44.0487 19.226 44.0487 21.7536C44.0487 24.9649 42.8163 27.4052 41.0539 27.4052ZM14.3203 16.0415L13.4734 16.2695C12.7368 13.8693 11.5595 12.5151 9.37009 12.5151H6.56118C6.43037 14.0437 6.38217 16.5913 6.39598 19.2395L8.28929 19.1791C9.54919 19.1389 10.0724 18.2271 10.3754 16.8796H11.0845V22.491H10.3754C10.0724 21.1434 9.54231 20.2383 8.28929 20.1914L6.40285 20.1311C6.42349 22.1424 6.47856 23.8587 6.56806 24.8777C6.69888 26.3728 7.11197 27.0297 8.19974 27.1839L9.16361 27.2845V27.955H0V27.2845L0.757351 27.1839C1.84516 27.0297 2.25825 26.3727 2.38903 24.8777C2.59555 22.4172 2.62998 17.2952 2.38903 14.4392C2.25821 12.9441 1.84512 12.2871 0.757351 12.1329L0 12.0324V11.3619H14.2446L14.3203 16.0415ZM18.878 15.7801C22.9263 15.7801 24.9366 18.455 24.9366 21.9748C24.9366 25.414 22.6646 28.2365 18.6163 28.2365C14.5681 28.2365 12.5509 25.5615 12.5509 22.0418C12.5509 18.6026 14.8229 15.7801 18.878 15.7801ZM18.6646 16.5444C16.8746 16.5444 16.372 18.9043 16.372 22.0083C16.372 25.0319 17.1638 27.4723 18.8229 27.4723C20.6129 27.4723 21.1155 25.1124 21.1155 22.0083C21.1155 18.9847 20.3238 16.5444 18.6646 16.5444ZM48.8474 22.1223C48.8405 18.8573 50.961 15.7935 55.1332 15.7935C58.5274 15.7935 60.1521 18.2472 60.1659 21.4519H52.5927C52.5101 24.3615 54.0247 26.5002 56.9163 26.5002C58.19 26.5002 58.8784 26.1918 59.6496 25.6219L60.0076 26.0376C59.1677 27.1706 57.4121 28.25 55.085 28.25C51.4292 28.2433 48.8543 25.7225 48.8474 22.1223ZM52.6202 20.6206L56.4206 20.5401C56.4412 18.9043 56.1727 16.5645 54.8027 16.5645C53.4258 16.5645 52.6546 18.7769 52.6202 20.6206ZM69.901 19.454L69.2814 19.6149C68.6204 17.5299 67.6153 16.645 66.1489 16.645C65.1712 16.645 64.4621 17.3623 64.4621 18.4015C64.4621 19.434 65.2539 19.977 67.5465 20.8418C69.6601 21.6396 70.5 22.5581 70.5 24.2274C70.5 26.7214 68.5379 28.25 65.3157 28.25C63.7667 28.25 62.0455 27.9148 61.0403 27.5192L60.9302 24.0732L61.5498 23.9123C62.4379 26.3258 63.5946 27.2041 65.1161 27.2041C66.4104 27.2041 67.1333 26.3057 67.1333 25.347C67.1333 24.4151 66.5894 23.8587 64.524 23.1346C62.6031 22.4642 61.2124 21.6463 61.2124 19.5546C61.2124 17.5232 63.0575 15.7868 66.1075 15.7868C67.5257 15.7868 68.8683 16.0282 69.7702 16.4304L69.901 19.454ZM34.1828 19.3602C32.5442 18.2875 30.7748 18.7568 30.4099 19.3401C30.286 21.2709 30.3135 24.2274 30.4512 25.7158C30.5407 26.7013 30.8299 27.1303 31.5872 27.2309L32.5649 27.298V27.9684H25.0468V27.298L25.5769 27.2309C26.3342 27.1303 26.6234 26.7013 26.7129 25.7158C26.8575 24.1 26.885 20.7345 26.7129 18.8506C26.6234 17.8651 26.3342 17.4361 25.5769 17.3355L25.0468 17.2684V16.7924L30.4445 15.7733L30.3825 18.5221C31.6424 15.6929 34.1347 15.3242 35.5048 16.1153L34.1828 19.3602Z" fill="white"/>
</g>
</svg>
