<svg width="141" height="40" viewBox="0 0 141 40" fill="none" xmlns="http://www.w3.org/2000/svg">
<g opacity="0.5">
<path d="M39.5228 10H26.3486V16.7095H39.5228V10Z" fill="white"/>
<path d="M-0.000244141 10V16.7095H6.56234V30.1775H13.1739V16.7095H19.7365V10H-0.000244141Z" fill="white"/>
<path d="M19.7375 30.1775H26.3491H39.5233V23.419H26.3491V16.7095H19.7375V30.1775Z" fill="white"/>
<path d="M56.3196 15.0935H46.6716V17.8851H49.9039V26.6515H53.0873V17.8851H56.3196V15.0935Z" fill="white"/>
<path d="M59.9933 17.7866C57.6915 17.7866 56.0264 19.3048 56.0264 22.2923C56.0264 24.9369 57.4466 26.7979 60.0913 26.7979C61.4625 26.7979 62.54 26.4551 63.6174 25.8184L62.491 23.9084C61.6095 24.3492 61.0218 24.4961 60.2382 24.4961C59.4056 24.4961 58.8669 24.0554 58.7689 23.1248H63.8623C63.8623 22.9779 63.8623 22.782 63.8623 22.5372C63.8623 19.3538 62.3931 17.7866 59.9933 17.7866ZM58.7689 21.3128C58.8669 20.4312 59.2587 19.9905 59.9443 19.9905C60.8259 19.9905 61.1197 20.4312 61.2666 21.3128H58.7689Z" fill="white"/>
<path d="M69.4933 24.3986C68.6607 24.3986 68.2689 23.664 68.2689 22.2927C68.2689 20.9214 68.6607 20.1378 69.3953 20.1378C70.032 20.1378 70.3258 20.4806 70.7176 21.2642L72.7746 19.697C71.991 18.4727 71.0605 17.738 69.4443 17.738C66.6528 17.738 65.3304 19.5501 65.3304 22.2437C65.3304 25.1822 66.8487 26.7983 69.3953 26.7983C70.9135 26.7983 71.893 26.2106 72.8725 24.7414L71.0115 23.2722C70.4728 24.1047 70.032 24.3986 69.4933 24.3986Z" fill="white"/>
<path d="M79.7304 17.7871C78.7019 17.7871 78.1142 18.1299 77.5265 18.5707V14.6038L74.5391 15.7791V26.6515H77.5265V21.7051C77.5265 20.6276 77.9183 20.3338 78.555 20.3338C79.1427 20.3338 79.5345 20.6276 79.5345 21.754V26.7005H82.5219V21.3622C82.5709 19.0604 81.6404 17.7871 79.7304 17.7871Z" fill="white"/>
<path d="M89.7218 24.0557C88.3505 24.0557 87.7628 22.6354 87.7628 20.8724C87.7628 19.0603 88.3505 17.689 89.6728 17.689C90.7502 17.689 91.142 18.3747 91.5338 19.4521L94.4233 18.3257C93.6397 16.1218 92.5133 14.8975 89.6728 14.8975C86.5874 14.8975 84.3835 17.1503 84.3835 20.8724C84.3835 24.3006 86.1956 26.8472 89.6728 26.8472C92.4154 26.8472 93.6887 25.378 94.4723 23.8598L91.7787 22.4395C91.142 23.517 90.7502 24.0557 89.7218 24.0557Z" fill="white"/>
<path d="M99.2709 18.6192V17.9825H96.2834V26.651H99.2709V21.9005C99.2709 20.823 99.7117 20.4802 100.446 20.4802C101.034 20.4802 101.475 20.7741 101.818 21.2148L102.503 18.1294C102.16 17.9335 101.72 17.7866 101.083 17.7866C100.348 17.7866 99.8096 18.1294 99.2709 18.6192Z" fill="white"/>
<path d="M108.92 22.9293C108.92 24.0068 108.528 24.3006 107.941 24.3006C107.353 24.3006 106.961 24.0068 106.961 22.8804V17.9829H103.974V23.2722C103.974 25.574 104.904 26.8473 106.765 26.8473C107.794 26.8473 108.381 26.5045 108.92 26.0637V26.6514H111.908V17.9829H108.92V22.9293Z" fill="white"/>
<path d="M119.253 17.7866C118.224 17.7866 117.636 18.1294 117.049 18.5702V17.9825H114.061V26.651H117.049V21.7046C117.049 20.6271 117.441 20.3333 118.077 20.3333C118.665 20.3333 119.057 20.6271 119.057 21.7536V26.7H122.044V21.3618C122.044 19.06 121.163 17.7866 119.253 17.7866Z" fill="white"/>
<path d="M127.97 24.3986C127.137 24.3986 126.745 23.664 126.745 22.2927C126.745 20.9214 127.137 20.1378 127.872 20.1378C128.508 20.1378 128.802 20.4806 129.194 21.2642L131.251 19.697C130.467 18.4727 129.537 17.738 127.921 17.738C125.129 17.738 123.807 19.5501 123.807 22.2437C123.807 25.1822 125.325 26.7983 127.872 26.7983C129.39 26.7983 130.369 26.2106 131.349 24.7414L129.488 23.2722C128.949 24.1047 128.508 24.3986 127.97 24.3986Z" fill="white"/>
<path d="M138.207 17.7871C137.178 17.7871 136.591 18.1299 136.003 18.5707V14.6038L133.015 15.7791V26.6515H136.003V21.7051C136.003 20.6276 136.395 20.3338 137.031 20.3338C137.619 20.3338 138.011 20.6276 138.011 21.754V26.7005H140.998V21.3622C141.047 19.0604 140.117 17.7871 138.207 17.7871Z" fill="white"/>
</g>
</svg>
